<svg width="156" height="71" viewBox="0 0 156 71" fill="none" xmlns="http://www.w3.org/2000/svg">
<g id="Illustration" clip-path="url(#clip0_115_409)">
<path id="Vector" d="M153.692 59.6054H2.54067C1.5965 59.6054 1.48301 55.7658 1.76721 50.2743C1.84637 48.7398 1.957 47.0631 2.08861 45.3118C2.10196 45.1371 2.11531 44.9557 2.12771 44.779C2.25456 43.1595 2.39666 41.4723 2.54734 39.7573C3.56018 28.4038 5.01459 15.7278 4.80096 12.2177C4.39182 5.46859 8.88474 1.82764 8.88474 1.82764C8.88474 1.82764 96.3017 -2.27547 105.7 1.81713C115.094 5.90592 145.322 35.9636 151.04 39.2359C156.76 42.5093 153.691 59.6064 153.691 59.6064L153.692 59.6054Z" fill="#537481"/>
<path id="Vector_2" d="M155.547 49.4016C155.212 49.0884 154.679 48.9289 154.223 48.9604L137.247 50.1129V60.8515C137.247 60.8515 145.635 60.9795 151.848 60.9002C153.165 60.883 154.346 59.9491 154.597 58.6543C154.891 57.1389 155.467 55.6178 155.805 54.8501C155.961 54.4977 156 54.1129 156 53.7281V50.6104C156 50.1521 155.881 49.7148 155.547 49.4016Z" fill="#646464"/>
<path id="Vector_3" d="M2.12868 50.5274C1.07769 50.5274 0 51.2388 0 52.2901V57.6813C0 58.6505 0.832587 59.466 1.79488 59.5739L23.9047 62.0575V50.5264H2.12868V50.5274Z" fill="#646464"/>
<g id="Group">
<g id="Group_2">
<path id="Vector_4" d="M31.0012 70.2399C38.1931 70.2399 44.0232 64.4027 44.0232 57.202C44.0232 50.0014 38.1931 44.1641 31.0012 44.1641C23.8094 44.1641 17.9793 50.0014 17.9793 57.202C17.9793 64.4027 23.8094 70.2399 31.0012 70.2399Z" fill="#323232"/>
<path id="Vector_5" d="M38.4788 64.6893C42.6089 60.5542 42.6089 53.8498 38.4788 49.7147C34.3488 45.5796 27.6526 45.5796 23.5226 49.7147C19.3925 53.8498 19.3925 60.5542 23.5226 64.6893C27.6526 68.8245 34.3488 68.8245 38.4788 64.6893Z" fill="#B1C4CB"/>
<path id="Vector_6" d="M39.8841 61.0578C39.8574 61.0578 39.8297 61.053 39.804 61.0416C39.6991 60.9976 39.6504 60.8764 39.6943 60.7713C40.1721 59.6408 40.4134 58.4405 40.4134 57.2029C40.4134 52.1478 36.3058 48.0342 31.2559 48.0342C29.6889 48.0342 28.1439 48.4372 26.7858 49.1992C26.6867 49.2555 26.5608 49.2202 26.5055 49.1199C26.4501 49.0206 26.4854 48.8946 26.5846 48.8392C28.0037 48.0428 29.6193 47.6217 31.2559 47.6217C36.5327 47.6217 40.8254 51.9196 40.8254 57.2029C40.8254 58.4968 40.5727 59.7506 40.0729 60.9327C40.0395 61.012 39.9632 61.0587 39.8831 61.0587L39.8841 61.0578Z" fill="#91B3FA"/>
</g>
<path id="Vector_7" d="M35.1259 59.7574C36.5341 57.4764 35.8288 54.4842 33.5505 53.0743C31.2722 51.6644 28.2837 52.3706 26.8755 54.6517C25.4673 56.9327 26.1727 59.9249 28.451 61.3348C30.7292 62.7447 33.7177 62.0385 35.1259 59.7574Z" fill="#242222"/>
</g>
<g id="Group_3">
<g id="Group_4">
<path id="Vector_8" d="M128.635 70.2399C135.827 70.2399 141.657 64.4026 141.657 57.202C141.657 50.0013 135.827 44.1641 128.635 44.1641C121.443 44.1641 115.613 50.0013 115.613 57.202C115.613 64.4026 121.443 70.2399 128.635 70.2399Z" fill="#323232"/>
<path id="Vector_9" d="M136.113 64.6896C140.244 60.5545 140.244 53.8501 136.113 49.715C131.983 45.5799 125.287 45.5799 121.157 49.715C117.027 53.8502 117.027 60.5545 121.157 64.6896C125.287 68.8248 131.983 68.8248 136.113 64.6896Z" fill="#B1C4CB"/>
<path id="Vector_10" d="M137.519 61.0578C137.492 61.0578 137.465 61.053 137.439 61.0416C137.334 60.9976 137.285 60.8764 137.329 60.7713C137.807 59.6417 138.048 58.4405 138.048 57.2029C138.048 52.1478 133.941 48.0342 128.891 48.0342C127.324 48.0342 125.779 48.4372 124.421 49.1992C124.322 49.2555 124.196 49.2202 124.14 49.1199C124.085 49.0206 124.12 48.8946 124.22 48.8392C125.639 48.0428 127.254 47.6217 128.891 47.6217C134.168 47.6217 138.46 51.9196 138.46 57.2029C138.46 58.4968 138.208 59.7515 137.708 60.9327C137.674 61.012 137.598 61.0587 137.518 61.0587L137.519 61.0578Z" fill="#BDD0FB"/>
</g>
<path id="Vector_11" d="M133.071 59.1849C134.161 56.7353 133.061 53.8649 130.615 52.7738C128.168 51.6826 125.301 52.7839 124.211 55.2335C123.122 57.6831 124.221 60.5535 126.668 61.6447C129.115 62.7358 131.982 61.6345 133.071 59.1849Z" fill="#242222"/>
</g>
<path id="Vector_12" d="M127.864 25.014L108.654 9.36452C107.663 8.55096 106.42 8.22821 105.138 8.22821H96.3246C93.2622 8.22821 90.6738 10.4684 90.6738 13.5345V23.2313C90.6738 24.5815 91.4893 25.8639 92.6957 26.4683L99.4947 29.8934H126.155C127.293 29.8934 128.308 29.1295 128.692 28.0563C129.075 26.983 128.743 25.7369 127.863 25.014H127.864Z" fill="#B1C4CB"/>
<path id="Vector_13" d="M51.9313 56.5106C51.8179 56.5106 51.7253 56.418 51.7253 56.3044V9.26137C51.7253 9.14774 51.8179 9.05511 51.9313 9.05511C52.0448 9.05511 52.1373 9.14774 52.1373 9.26137V56.3044C52.1373 56.418 52.0448 56.5106 51.9313 56.5106Z" fill="#486079"/>
<path id="Vector_14" d="M86.7589 56.5107C86.6454 56.5107 86.5529 56.418 86.5529 56.3044V9.26137C86.5529 9.14774 86.6454 9.05512 86.7589 9.05512C86.8724 9.05512 86.9649 9.14774 86.7522 8.78394V55.827C86.9649 56.418 86.8733 56.5107 86.7589 56.5107Z" fill="#486079"/>
<path id="Vector_15" d="M86.1399 10.7051H53.3734C53.2599 10.7051 53.1674 10.6125 53.1674 10.4989C53.1674 10.3852 53.2599 10.2926 53.3734 10.2926H86.1399C86.2534 10.2926 86.3459 10.3852 86.3459 10.4989C86.3459 10.6125 86.2534 10.7051 86.1399 10.7051Z" fill="#486079"/>
<path id="Vector_16" d="M50.6953 10.7051H8.44892C8.33543 10.7051 8.24292 10.6125 8.24292 10.4989C8.24292 10.3852 8.33543 10.2926 8.44892 10.2926H50.6944C50.8079 10.2926 50.9004 10.3852 50.9004 10.4989C50.9004 10.6125 50.8079 10.7051 50.6944 10.7051H50.6953Z" fill="#486079"/>
<path id="Vector_17" d="M49.4584 40.0037H8.44892C8.33543 40.0037 8.24292 39.9111 8.24292 39.7974C8.24292 39.6838 8.33543 39.5912 8.44892 39.5912H49.4584C49.5719 39.5912 49.6644 39.6838 49.6644 39.7974C49.6644 39.9111 49.5719 40.0037 49.4584 40.0037Z" fill="#486079"/>
<path id="Vector_18" d="M82.8429 40.0037H54.4043C54.2908 40.0037 54.1983 39.9111 54.1983 39.7974C54.1983 39.6838 54.2908 39.5912 54.4043 39.5912H82.8429C82.9564 39.5912 83.0489 39.6838 83.0489 39.7974C83.0489 39.9111 82.9564 40.0037 82.8429 40.0037Z" fill="#486079"/>
<path id="Vector_19" d="M92.9112 57.4063C92.8121 57.4063 92.7243 57.3347 92.7081 57.2335L89.4397 37.0569C89.4378 37.0464 89.4369 37.035 89.4369 37.0235V26.3852C89.4369 26.2716 89.5294 26.179 89.6429 26.179C89.7564 26.179 89.8489 26.2716 89.8489 26.3852V37.0063L93.1144 57.1657C93.1325 57.2784 93.0562 57.3844 92.9437 57.4025C92.9322 57.4044 92.9217 57.4054 92.9103 57.4054L92.9112 57.4063Z" fill="#486079"/>
<path id="Vector_20" d="M151.672 39.9025C151.672 39.9025 150.423 41.2422 148.153 41.2422H146.717C146.274 41.2422 145.858 41.3195 145.593 41.6738C145.328 42.029 145.247 42.4214 145.372 42.8464L146.467 46.5198C146.676 47.2264 147.323 47.6924 148.059 47.6905C150.336 47.6857 154.927 47.5673 154.825 46.2333C154.689 44.4611 153.193 39.3773 151.672 39.9025Z" fill="#B1C4CB"/>
<g id="Group_5">
<path id="Vector_21" d="M130.446 29.3195C130.446 29.6843 130.114 29.9803 129.622 29.9803C129.13 29.9803 128.798 29.6843 128.798 29.3195V26.4138C128.798 26.0491 129.131 25.7531 129.622 25.7531C130.114 25.7531 130.446 26.0491 130.446 26.4138V29.3195Z" fill="#242222"/>
<path id="Vector_22" d="M129.416 30.7194C129.416 32.0868 128.309 33.1954 126.943 33.1954C125.578 33.1954 124.47 32.0868 124.47 30.7194V24.3236C124.47 22.9562 125.578 21.8476 126.943 21.8476C128.309 21.8476 129.416 22.9562 129.416 24.3236V30.7194Z" fill="#323232"/>
</g>
<path id="Vector_23" d="M126.943 40.0037H94.7958C94.6823 40.0037 94.5898 39.9111 94.5898 39.7974C94.5898 39.6838 94.6823 39.5912 94.7958 39.5912H126.943C127.057 39.5912 127.149 39.6838 127.149 39.7974C127.149 39.9111 127.057 40.0037 126.943 40.0037Z" fill="#486079"/>
<path id="Vector_24" d="M82.0752 25.9736H81.9617C81.3102 25.9736 80.782 26.5025 80.782 27.1548V32.2204C80.782 32.8728 81.3102 33.4016 81.9617 33.4016H82.0752C82.7268 33.4016 83.2549 32.8728 83.2549 32.2204V27.1548C83.2549 26.5025 82.7268 25.9736 82.0752 25.9736Z" fill="#323232"/>
<path id="Vector_25" d="M101.035 32.3704H95.9755C95.324 32.3704 94.7958 32.8992 94.7958 33.5515V33.6652C94.7958 34.3175 95.324 34.8464 95.9755 34.8464H101.035C101.686 34.8464 102.215 34.3175 102.215 33.6652V33.5515C102.215 32.8992 101.686 32.3704 101.035 32.3704Z" fill="#323232"/>
<path id="Vector_26" d="M4.73992 40.8764V49.1972C4.73992 49.8179 4.47479 50.5264 3.85393 50.5264H2.13916C2.00945 50.5264 1.88356 50.3994 1.76721 50.3574C1.84637 48.8229 1.957 47.1041 2.08861 45.3529C2.10196 45.1781 2.11532 44.9977 2.12771 44.821C2.25456 43.2015 2.39666 41.6546 2.54735 39.7983H3.85297C4.47288 39.7983 4.73897 40.2567 4.73897 40.8774L4.73992 40.8764Z" fill="#B1C4CB"/>
<path id="Vector_27" d="M4.73996 44.9557V45.5745H2.0896C2.10295 45.3682 2.1163 44.9557 2.1287 44.9557H4.73996Z" fill="#BDD0FB"/>
</g>
<defs>
<clipPath id="clip0_115_409">
<rect width="156" height="70.2408" fill="white"/>
</clipPath>
</defs>
</svg>
