<svg width="21" height="20" viewBox="0 0 21 20" fill="none" xmlns="http://www.w3.org/2000/svg">
<path id="Vector" d="M1.79584 1H2.06418C2.53796 1 2.77527 1 2.96851 1.08548C3.13888 1.16084 3.28455 1.28218 3.38959 1.43604C3.50853 1.61026 3.55148 1.8429 3.63721 2.30727L5.79588 14L16.2176 14C16.6708 14 16.8981 14 17.0859 13.9199C17.2517 13.8492 17.3947 13.7346 17.5009 13.5889C17.621 13.4242 17.6719 13.2037 17.7736 12.7631L17.7744 12.76L19.3436 5.95996L19.3439 5.95854C19.4982 5.29016 19.5755 4.95515 19.4906 4.69238C19.4161 4.46182 19.2593 4.26634 19.0514 4.14192C18.8143 4 18.4716 4 17.7846 4H4.29584M16.7958 19C16.2436 19 15.7958 18.5523 15.7958 18C15.7958 17.4477 16.2436 17 16.7958 17C17.3481 17 17.7958 17.4477 17.7958 18C17.7958 18.5523 17.3481 19 16.7958 19ZM6.79584 19C6.24355 19 5.79584 18.5523 5.79584 18C5.79584 17.4477 6.24355 17 6.79584 17C7.34812 17 7.79584 17.4477 7.79584 18C7.79584 18.5523 7.34812 19 6.79584 19Z" stroke="#B1C4CB" stroke-width="2" stroke-linecap="round" stroke-linejoin="round"/>
</svg>
