<svg width="37" height="45" viewBox="0 0 37 45" fill="none" xmlns="http://www.w3.org/2000/svg">
<g id="Logo furst-02 1">
<path id="Vector" d="M11.7681 44.8718C11.7681 44.8718 11.4446 39.6937 5.29566 37.0239C5.29566 37.0239 2.46389 36.5385 2.30191 33.1406C2.13993 29.7427 2.30191 26.1021 2.30191 26.1021C2.30191 26.1021 11.7681 27.1536 11.7681 34.5161C11.7681 41.8786 11.7681 44.8718 11.7681 44.8718Z" fill="url(#paint0_linear_202_893)"/>
<path id="Vector_2" d="M2.24625 31.4614L2.2301 21.5098C2.2301 21.5098 4.39729 14.3692 11.0082 14.1676C18.9775 13.9249 25.2681 13.9249 25.2681 13.9249C25.2681 13.9249 25.3895 23.7551 16.4697 24.5437C7.54989 25.3327 3.92541 26.9406 2.24677 31.4609L2.24625 31.4614Z" fill="url(#paint1_linear_202_893)"/>
<path id="Vector_3" d="M2.2301 20.4786V10.0416C2.2301 10.0416 4.51552 1.9104 12.04 1.78904C19.564 1.66769 34.7337 1.78904 34.7337 1.78904C34.7337 1.78904 34.916 12.4687 26.2994 12.4687C17.6827 12.4687 10.2801 12.863 10.2801 12.863C10.2801 12.863 3.88844 12.7114 2.2301 20.4781V20.4786Z" fill="url(#paint2_linear_202_893)"/>
</g>
<defs>
<linearGradient id="paint0_linear_202_893" x1="11.7675" y1="35.4864" x2="2.23004" y2="35.4864" gradientUnits="userSpaceOnUse">
<stop stop-color="#354A5B"/>
<stop offset="1" stop-color="#C9CFD3"/>
</linearGradient>
<linearGradient id="paint1_linear_202_893" x1="2.2301" y1="22.6932" x2="25.2681" y2="22.6932" gradientUnits="userSpaceOnUse">
<stop stop-color="#354A5B"/>
<stop offset="1" stop-color="#C9CFD3"/>
</linearGradient>
<linearGradient id="paint2_linear_202_893" x1="2.2301" y1="11.1073" x2="34.7343" y2="11.1073" gradientUnits="userSpaceOnUse">
<stop stop-color="#354A5B"/>
<stop offset="1" stop-color="#C9CFD3"/>
</linearGradient>
</defs>
</svg>
