<svg width="132" height="125" viewBox="0 0 132 125" fill="none" xmlns="http://www.w3.org/2000/svg">
<g id="Capa_1" clip-path="url(#clip0_202_7085)">
<path id="Vector" d="M66.4892 42.0276C65.1828 40.4841 64.0973 38.8753 63.2045 37.1347C62.309 35.3875 60.9115 34.3247 58.9345 34.1143C54.8733 33.6815 51.8509 37.7207 53.4839 41.4523C54.6391 44.0918 56.3123 46.4277 58.134 48.6518C59.8005 50.688 61.6477 52.5485 63.7104 54.1892C64.033 54.4462 64.104 54.6873 64.041 55.0908C63.4949 58.6013 63.1148 62.1265 63.1536 65.6889C63.1589 66.1737 63.262 66.3588 63.7907 66.4387C69.0981 67.2391 74.4001 68.0794 79.7047 68.9025C82.3671 69.3166 84.1514 70.8015 85.1325 73.2759C87.91 80.2836 90.6995 87.2874 93.4516 94.3057C93.8612 95.3485 94.2734 96.4432 94.3725 97.5419C94.6121 100.179 93.5024 102.276 91.2309 103.64C88.9367 105.018 86.5688 104.957 84.2665 103.575C82.956 102.788 82.1101 101.618 81.5532 100.213C79.1465 94.1313 76.7278 88.0545 74.3318 81.9683C74.1538 81.5142 73.9209 81.3384 73.435 81.2652C66.587 80.2237 59.7376 79.181 52.8977 78.0863C48.7816 77.427 46.2545 74.938 44.9868 71.0559C44.3524 69.1115 44.1837 67.0913 44.1047 65.0856C43.9776 61.8322 43.9 58.5667 44.0445 55.3159C44.2627 50.411 45.5584 45.7006 47.0482 41.0395C47.8888 38.4092 48.9677 35.9242 50.9715 33.9465C53.7128 31.2404 56.9534 29.8966 60.8526 30.5452C63.0813 30.9154 64.5497 32.3324 65.5308 34.2608C66.7262 36.61 67.0059 39.1177 66.6177 41.708C66.6057 41.7892 66.5548 41.8665 66.4892 42.0249V42.0276Z" fill="#425666"/>
<path id="Vector_2" d="M20.2492 39.3362C25.7372 39.3362 31.2239 39.3362 36.7119 39.3362C38.7305 39.3362 39.8415 40.4535 39.8415 42.4751C39.8415 53.2184 39.8415 63.963 39.8415 74.7063C39.8415 76.7785 38.7465 77.8786 36.6771 77.8786C25.7238 77.8786 14.7718 77.8786 3.81852 77.8786C1.71968 77.8786 0.620738 76.8171 0.619399 74.7396C0.612707 63.9737 0.612707 53.2078 0.619399 42.4418C0.620738 40.4162 1.74244 39.3362 3.78506 39.3362C9.2731 39.3362 14.7598 39.3362 20.2478 39.3362H20.2492ZM20.13 59.174C20.0792 59.4643 20.0537 59.6788 20.0029 59.8865C19.4594 62.1039 18.912 64.3213 18.3658 66.5386C17.7836 68.9065 17.2053 71.2757 16.6217 73.6436C16.5053 74.1177 16.5173 74.5625 17.05 74.7516C17.5855 74.942 18.0138 74.7662 18.248 74.2202C18.2828 74.139 18.323 74.0591 18.3605 73.9792C21.5636 67.1526 24.7721 60.3273 27.9552 53.4901C28.0917 53.1971 28.1158 52.7363 27.9779 52.4593C27.7611 52.0252 27.2939 52.0878 26.8495 52.2036C25.6221 52.5246 24.3853 52.8136 23.1525 53.1145C22.1017 53.3702 21.051 53.6246 19.8998 53.9029C20.0082 53.578 20.0711 53.3716 20.1461 53.1691C21.063 50.6947 21.9813 48.2217 22.8995 45.7473C23.2582 44.7777 22.9838 44.3702 21.9424 44.3649C20.1582 44.3556 18.3725 44.3582 16.5882 44.3649C15.666 44.3676 15.4893 44.518 15.2671 45.429C14.1133 50.1447 12.9608 54.8605 11.8056 59.5762C11.5205 60.7415 11.9529 61.169 13.1415 60.876C15.152 60.3806 17.1598 59.8759 19.1703 59.3791C19.4648 59.3059 19.7633 59.2526 20.1287 59.1754L20.13 59.174Z" fill="#EEBD31"/>
<path id="Vector_3" d="M95.8382 106.495V112.8H53.6633C54.698 106.042 52.9017 100.228 47.8473 95.5788C44.4006 92.4092 40.2323 90.8524 35.5474 90.8217C31.8289 90.7978 28.3715 91.8152 25.254 93.8635C22.1151 95.925 19.8289 98.6991 18.3725 102.151C16.9269 105.575 16.6137 109.123 17.2709 112.802H8.08714C8.22769 111.447 8.30131 110.126 8.51012 108.826C9.46718 102.858 11.4844 97.2022 13.6943 91.6048C13.7907 91.3611 13.8817 91.1161 13.9112 91.0388C13.2539 90.6313 12.4977 90.3929 12.1416 89.8802C11.7748 89.3515 11.7802 88.5591 11.657 87.8746C11.6075 87.5949 11.649 87.2992 11.649 87.0102C11.649 85.7224 11.6396 84.4346 11.6517 83.1482C11.6664 81.5753 12.4829 80.7656 14.0477 80.7656C28.3019 80.7643 42.5574 80.7643 56.8115 80.7656C58.4178 80.7656 59.1968 81.5354 59.2009 83.1215C59.2049 84.8968 59.1848 86.6733 59.2089 88.4486C59.2209 89.3794 58.889 90.0706 58.0591 90.5381C57.9051 90.6246 57.7673 90.919 57.7833 91.1027C58.2411 96.2473 59.502 101.183 61.6865 105.88C61.9061 106.351 62.159 106.508 62.6851 106.507C73.459 106.49 84.2343 106.494 95.0083 106.494C95.2706 106.494 95.533 106.494 95.8382 106.494V106.495Z" fill="#000C1D"/>
<path id="Vector_4" d="M19.6281 109.251C19.6281 100.541 26.6996 93.5186 35.4684 93.5212C44.2158 93.5239 51.2726 100.569 51.2659 109.293C51.2593 117.954 44.185 124.985 35.4604 125C26.7438 125.016 19.6281 117.938 19.6281 109.251ZM35.4751 103.006C32.0351 102.993 29.188 105.791 29.1773 109.195C29.1666 112.675 31.9427 115.478 35.4229 115.503C38.8991 115.527 41.7208 112.696 41.7235 109.179C41.7261 105.823 38.8884 103.019 35.4751 103.006Z" fill="#1E1E1E"/>
<path id="Vector_5" d="M130.021 109.271C130.021 117.972 122.922 125.023 114.182 125C105.476 124.979 98.3855 117.92 98.3814 109.273C98.3788 100.53 105.462 93.5093 114.274 93.5213C122.983 93.5332 130.019 100.572 130.019 109.269L130.021 109.271ZM120.489 109.247C120.489 105.828 117.673 103.015 114.238 103.005C110.799 102.994 107.957 105.781 107.931 109.191C107.904 112.647 110.713 115.482 114.183 115.502C117.639 115.521 120.489 112.695 120.489 109.247Z" fill="#1E1E1E"/>
<path id="Vector_6" d="M81.2869 11.7288C79.4986 12.0604 77.7652 12.2709 76.1013 12.729C74.9435 13.0473 73.8164 13.6053 72.7925 14.2405C71.7337 14.8984 71.3361 16.0024 71.4954 17.2543C71.7082 18.9256 72.0469 20.589 72.1379 22.2657C72.2972 25.2062 71.8715 25.366 69.3055 25.695C66.2938 26.0798 63.2995 25.6217 60.4015 24.7294C57.2399 23.7559 55.4784 21.468 54.5909 18.3916C53.0958 13.2111 53.8132 8.44606 57.5732 4.45212C61.3345 0.456847 66.0556 -0.893554 71.3616 0.576705C76.7264 2.06295 79.9443 5.7306 81.2106 11.1069C81.2601 11.3187 81.2628 11.5411 81.2842 11.7275L81.2869 11.7288Z" fill="#425666"/>
<path id="Vector_7" d="M100.578 96.7415C98.5581 90.8925 96.5583 85.1113 94.5652 79.3288C92.5802 73.569 90.6018 67.8078 88.594 61.9707C86.9931 62.57 85.4497 63.1773 83.8823 63.7166C83.3496 63.9004 82.7486 64.0189 82.1944 63.9777C80.9201 63.8818 79.955 62.7231 80.0152 61.426C80.8733 61.4993 81.7299 61.6098 82.5879 61.6378C84.0791 61.687 85.5782 61.7736 87.0654 61.6884C89.7866 61.5339 91.678 59.724 92.2817 56.9087C92.4503 57.2563 92.6565 57.5906 92.7836 57.9528C93.999 61.4486 95.2104 64.9472 96.395 68.4537C96.5583 68.9371 96.8153 69.2128 97.2811 69.4232C102.397 71.7365 106.549 75.1524 109.236 80.1265C110.116 81.7566 110.772 83.5159 111.414 85.2591C111.669 85.9516 112.029 86.1035 112.673 86.1035C115.65 86.1061 118.517 86.6775 121.253 87.8494C125.397 89.6246 128.479 92.5798 130.746 96.4113C131.034 96.8974 131.215 97.4647 131.35 98.0174C131.489 98.5887 131.205 98.9949 130.639 99.2013C130.112 99.3944 129.777 99.2852 129.42 98.7871C125.868 93.8356 121.038 91.1189 114.915 90.8725C109.462 90.6527 104.802 92.5651 100.941 96.4019C100.847 96.4952 100.748 96.5831 100.578 96.7429V96.7415Z" fill="#000C1D"/>
<path id="Vector_8" d="M85.0736 60.6136C76.1683 60.555 68.5104 57.4214 62.0854 51.2993C59.1473 48.4999 56.7179 45.313 54.8091 41.7373C53.7302 39.7143 54.0046 37.5982 55.5158 36.2598C57.608 34.406 60.7897 34.9546 62.1175 37.457C63.8871 40.7931 66.1586 43.7229 69.0244 46.1907C73.3573 49.9209 78.3595 51.9931 84.1152 52.1676C85.1606 52.1996 86.2167 52.097 87.2514 52.2089C89.547 52.4593 91.1345 54.3037 91.0609 56.5091C90.9846 58.7918 89.2753 60.4778 86.8806 60.6109C86.281 60.6442 85.6773 60.6163 85.0749 60.6163L85.0736 60.6136Z" fill="#425666"/>
<path id="Vector_9" d="M109.359 60.9412C109.224 61.7775 108.972 63.3903 108.699 65.0004C108.648 65.3027 108.522 65.5943 108.408 65.882C107.587 67.9516 106.667 68.4643 104.489 68.0741C100.711 67.3975 97.8862 64.0016 97.8929 60.1421C97.8996 56.2454 100.739 52.8947 104.59 52.2435C106.703 51.8852 107.573 52.3567 108.374 54.3383C109.125 56.1988 109.283 58.1605 109.36 60.9412H109.359Z" fill="#000C1D"/>
<path id="Vector_10" d="M60.0468 25.8029C62.5807 26.546 65.0731 26.8763 67.5882 26.8909C68.75 26.8976 69.9186 26.6259 71.0778 26.4381C72.5649 26.1971 73.182 25.141 73.2074 23.7986C73.2328 22.4588 73.0535 21.1124 72.929 19.7727C72.8487 18.9137 72.7135 18.0587 72.5917 17.2037C72.4551 16.2448 72.8206 15.519 73.5982 14.9717C74.9462 14.0235 76.5136 13.6865 78.0891 13.3736C78.4598 13.3003 78.8494 13.2937 79.2068 13.1805C79.8586 12.974 80.137 13.2457 80.3914 13.8264C83.4352 20.7888 78.7744 29.1123 71.2103 30.1484C66.8707 30.7437 63.2245 29.3986 60.3011 26.1398C60.2329 26.0639 60.178 25.976 60.0508 25.8029H60.0468Z" fill="#425666"/>
<path id="Vector_11" d="M20.13 59.1739C19.7646 59.2511 19.4648 59.3044 19.1716 59.3777C17.1611 59.8744 15.1533 60.3791 13.1428 60.8746C11.9542 61.1675 11.5219 60.7401 11.807 59.5748C12.9621 54.859 14.1146 50.1433 15.2684 45.4275C15.4906 44.5166 15.6687 44.3661 16.5896 44.3634C18.3739 44.3581 20.1595 44.3555 21.9438 44.3634C22.9852 44.3688 23.2609 44.7763 22.9008 45.7458C21.9839 48.2202 21.0643 50.6933 20.1474 53.1677C20.0725 53.3701 20.0096 53.5765 19.9011 53.9015C21.0523 53.6218 22.1031 53.3688 23.1538 53.1131C24.3866 52.8121 25.6234 52.5231 26.8509 52.2022C27.2953 52.0863 27.7624 52.025 27.9793 52.4579C28.1171 52.7349 28.093 53.1957 27.9565 53.4886C24.7735 60.3245 21.5663 67.1498 18.3618 73.9777C18.3243 74.0576 18.2842 74.1375 18.2494 74.2188C18.0138 74.7634 17.5868 74.9392 17.0514 74.7501C16.5186 74.561 16.5053 74.1175 16.623 73.6421C17.2067 71.2742 17.7849 68.9051 18.3672 66.5372C18.912 64.3198 19.4608 62.1038 20.0042 59.8851C20.0551 59.6773 20.0805 59.4629 20.1314 59.1726L20.13 59.1739Z" fill="white"/>
<path id="Vector_12" d="M35.4751 103.005C38.8884 103.018 41.7261 105.821 41.7235 109.177C41.7208 112.695 38.8991 115.526 35.4229 115.502C31.9427 115.478 29.1666 112.673 29.1773 109.193C29.188 105.789 32.0351 102.991 35.4751 103.005Z" fill="white"/>
<path id="Vector_13" d="M120.489 109.247C120.489 112.695 117.64 115.521 114.183 115.502C110.713 115.482 107.905 112.647 107.931 109.191C107.957 105.781 110.799 102.994 114.238 103.005C117.671 103.015 120.489 105.828 120.489 109.247Z" fill="white"/>
</g>
<defs>
<clipPath id="clip0_202_7085">
<rect width="130.769" height="125" fill="white" transform="translate(0.615387)"/>
</clipPath>
</defs>
</svg>
