<svg width="79" height="150" viewBox="0 0 79 150" fill="none" xmlns="http://www.w3.org/2000/svg">
<g id="Layer_1" clip-path="url(#clip0_115_380)">
<g id="Group">
<path id="Vector" d="M74.9645 150H4.04331C1.81199 150 7.62939e-06 148.187 7.62939e-06 145.954L7.62939e-06 4.04565C7.62939e-06 1.81305 1.81199 0 4.04331 0H74.9645C77.1958 0 79.0078 1.81305 79.0078 4.04565L79.0078 145.954C79.0078 148.187 77.1958 150 74.9645 150Z" fill="#486079"/>
<g id="Group_2">
<path id="Vector_2" d="M27.9245 7.27734H48.4621C48.9011 7.27734 49.2616 6.91811 49.2616 6.47748C49.2616 6.03825 48.9025 5.67761 48.4621 5.67761H27.9245C27.4855 5.67761 27.1251 6.03685 27.1251 6.47748C27.1251 6.9167 27.4841 7.27734 27.9245 7.27734Z" fill="#000C1D"/>
<path id="Vector_3" d="M52.1114 7.27734C52.5503 7.27734 52.9108 6.91811 52.9108 6.47748C52.9108 6.03825 52.5517 5.67761 52.1114 5.67761C51.6724 5.67761 51.312 6.03685 51.312 6.47748C51.312 6.9167 51.671 7.27734 52.1114 7.27734Z" fill="#000C1D"/>
</g>
<path id="Vector_4" d="M43.6797 141.711C43.6797 138.862 41.3727 136.554 38.5257 136.554C35.6787 136.554 33.3716 138.862 33.3716 141.711C33.3716 144.56 35.6787 146.868 38.5257 146.868C41.3727 146.868 43.6797 144.56 43.6797 141.711Z" fill="#000C1D"/>
</g>
<path id="Vector_5" d="M72.4302 11.8942H6.74304V133.22H72.4302V11.8942Z" fill="white"/>
<g id="Group_3">
<path id="Vector_6" d="M61.6874 106.375L61.6972 83.6659C61.6972 82.88 61.0549 82.236 60.2695 82.236L18.9164 82.2177C18.1311 82.2177 17.4873 82.8604 17.4873 83.6462L17.4775 106.355C17.4775 107.141 18.1198 107.785 18.9052 107.785L60.2583 107.804C61.0437 107.804 61.686 107.161 61.6874 106.375Z" fill="#486079"/>
<path id="Vector_7" d="M61.6944 86.0276H17.4845V91.0878H61.6944V86.0276Z" fill="#000C1D"/>
<path id="Vector_8" d="M47.8605 92.4967H20.8112V96.475H47.8605V92.4967Z" fill="#B1C4CB"/>
<path id="Vector_9" d="M26.3257 103.622V100.723C26.3257 100.126 25.8432 99.6422 25.2486 99.6422H21.8897C21.2936 99.6408 20.8098 100.123 20.8098 100.72V103.619C20.8098 104.215 21.2908 104.7 21.8869 104.7H25.2472C25.8432 104.701 26.3271 104.218 26.3271 103.622H26.3257Z" fill="#B1C4CB"/>
<g id="Group_4">
<path id="Vector_10" opacity="0.2" d="M31.3718 100.154L57.9443 100.166C58.1757 100.166 58.3622 99.979 58.3622 99.7474V99.3391C58.3622 99.1089 58.1757 98.9209 57.9443 98.9209L31.3718 98.9083C31.1404 98.9083 30.9539 99.0949 30.9539 99.3264V99.7348C30.9539 99.9663 31.1404 100.153 31.3718 100.153V100.154Z" fill="#AFCDFB"/>
<path id="Vector_11" opacity="0.2" d="M31.3661 102.491L57.947 102.503C58.1756 102.503 58.3607 102.318 58.3607 102.089V101.699C58.3607 101.471 58.1756 101.285 57.947 101.285L31.3647 101.273C31.1361 101.273 30.951 101.458 30.951 101.685V102.075C30.951 102.304 31.1361 102.489 31.3647 102.489L31.3661 102.491Z" fill="#AFCDFB"/>
<path id="Vector_12" opacity="0.2" d="M58.3593 104.339V103.897C58.3593 103.661 58.1686 103.47 57.933 103.47L31.3773 103.459C31.1417 103.459 30.951 103.65 30.951 103.886V104.328C30.951 104.563 31.1417 104.754 31.3773 104.754L57.933 104.767C58.1686 104.767 58.3593 104.576 58.3593 104.34V104.339Z" fill="#AFCDFB"/>
</g>
</g>
<g id="Group_5">
<path id="Vector_13" d="M38.9583 53.8973C44.1858 53.6598 48.2311 49.227 47.9937 43.9965C47.7564 38.7659 43.3262 34.7183 38.0986 34.9558C32.8711 35.1933 28.8258 39.6261 29.0631 44.8566C29.3005 50.0872 33.7307 54.1348 38.9583 53.8973Z" fill="#A8D29F"/>
<path id="Vector_14" d="M33.0056 45.0815L36.0994 48.1771C36.2691 48.3469 36.4977 48.4409 36.7376 48.4409H37.1891C37.429 48.4409 37.6576 48.3455 37.8273 48.1771L44.0458 41.955C44.6138 41.3867 44.2113 40.4142 43.4077 40.4142H43.1146C42.8789 40.4142 42.6517 40.5068 42.4834 40.671L37.3897 45.6526C37.0363 45.9978 36.4711 45.995 36.1205 45.6456L34.2804 43.8045C34.1093 43.6333 33.8751 43.5379 33.6325 43.5407C32.8331 43.5491 32.439 44.516 33.0042 45.0815H33.0056Z" fill="white"/>
</g>
</g>
<defs>
<clipPath id="clip0_115_380">
<rect width="78.8889" height="150" fill="white"/>
</clipPath>
</defs>
</svg>
