<svg width="21" height="20" viewBox="0 0 21 20" fill="none" xmlns="http://www.w3.org/2000/svg">
<path id="Vector" d="M7.80719 7.07361C7.97799 6.54732 8.29086 6.07896 8.71149 5.71948C9.13212 5.36001 9.6445 5.12378 10.191 5.03708C10.7375 4.95038 11.2969 5.0164 11.8082 5.22803C12.3194 5.43966 12.7622 5.78875 13.0875 6.23633C13.4128 6.68391 13.6076 7.21256 13.6511 7.76416C13.6946 8.31576 13.5845 8.86879 13.3334 9.36182C13.0822 9.85484 12.7001 10.2685 12.2283 10.5576C11.7566 10.8467 11.214 10.9998 10.6607 10.9998V12.0002M10.6607 19C5.69014 19 1.66071 14.9706 1.66071 10C1.66071 5.02944 5.69014 1 10.6607 1C15.6313 1 19.6607 5.02944 19.6607 10C19.6607 14.9706 15.6313 19 10.6607 19ZM10.7105 15V15.1L10.6109 15.1002V15H10.7105Z" stroke="#B1C4CB" stroke-width="1.5" stroke-linecap="round" stroke-linejoin="round"/>
</svg>
